Armageddon 1998 BluRay 1080p DTS x264-LoNeWoLf 

Encoded by Tequila-Bob a.k.a. bobnjeff a.k.a.LoNeWoLf

Source NTSC BluRay Disc

Armageddon (I) (1998) 

  150 min  -  Action | Adventure | Sci-Fi   -  1 July 1998 (USA)

 Users: 6.1/10 (121,817 votes) 1,103 reviews | Critics: 155 reviews 
 When an asteroid the size of Texas is headed for Earth the world's best deep core drilling team is sent to nuke the rock from the inside. 


Director: Michael Bay
Writers: Jonathan Hensleigh (screenplay), J.J. Abrams (screenplay), and 4 more credits » 
Stars:Bruce Willis, Billy Bob Thornton, Ben Affleck 
 
http://www.imdb.com/title/tt0120591/

Genres:Action, Adventure, Sci-Fi, Thriller

Rated PG-13 for sci-fi disaster action, sensuality and brief language


Storyline
It is just another day at the National Aeronautics and Space Administration (NASA), a few astronauts were repairing a satellite until, out of nowhere, a series of asteroids came crashing into the shuttle, destroying it. These asteroids also decimated New York soon thereafter. Then, NASA discovered that there is an asteroid roughly the size of Texas heading towards the Earth, and when it does hit the Earth, the planet itself and all of its inhabitants will be obliterated, worse, the asteroid will hit the Earth in 18 days. Unfortunately, NASA's plans to destroy the asteroid are irrelevant. That is when the U.S. military decides to use a nuclear warhead to blow the asteroid to pieces. Then, scientists decide to blow the asteroid with the warhead inside the asteroid itself. The only man to do it, is an oil driller named Harry Stamper and his group of misfit drillers and geologists. As he and his drill team prepare for space excavation.

See the full size 1920x800 PNG files at the link below
 
http://s1015.photobucket.com/albums/af279/tequila-bob/Armageddon%201998/


Cast
Cast overview, first billed only: 
  Bruce Willis  ...  Harry Stamper  
  Billy Bob Thornton  ...  Dan Truman  
  Ben Affleck  ...  A.J. Frost  
  Liv Tyler  ...  Grace Stamper  
  Will Patton  ...  Chick  
  Steve Buscemi  ...  Rockhound  
  William Fichtner  ...  Colonel Willie Sharp  
  Owen Wilson  ...  Oscar Choi  
  Michael Clarke Duncan  ...  Bear  
  Peter Stormare  ...  Lev Andropov  
  Ken Hudson Campbell  ...  Max (as Ken Campbell)  
  Jessica Steen  ...  Co-Pilot Jennifer Watts  
  Keith David  ...  General Kimsey  
  Chris Ellis  ...  Flight Director Clark  
  Jason Isaacs  ...  Ronald Quincy 


Format : Matroska 
File size : 10.0 GiB 
Duration : 2h 30mn 
Overall bit rate : 9 530 Kbps 
Encoded date : UTC 2010-12-09 19:02:07 
Writing application : mkvmerge v4.4.0 ('Die Wiederkehr') built on Oct 31 2010 21:52:48 
Writing library : libebml v1.0.0 + libmatroska v1.0.0 

Video 
ID : 1 
Format : AVC 
Format/Info : Advanced Video Codec 
Format profile : High@L4.1 
Format settings, CABAC : Yes 
Format settings, ReFrames : 5 frames 
Muxing mode : Container profile=Unknown@4.1 
Codec ID : V_MPEG4/ISO/AVC 
Duration : 2h 30mn 
Bit rate : 7 978 Kbps 
Width : 1 920 pixels 
Height : 800 pixels 
Display aspect ratio : 2.40:1 
Frame rate : 23.976 fps 
Color space : YUV 
Chroma subsampling : 4:2:0 
Bit depth : 8 bits 
Scan type : Progressive 
Bits/(Pixel*Frame) : 0.217 
Stream size : 8.25 GiB (82%) 
Writing library : x264 core 98 r1649 c54c47d 
Encoding settings : cabac=1 / ref=6 / deblock=1:-3:-1 / analyse=0x3:0x133 / me=umh / subme=9 / psy=1 / psy_rd=1.00:0.15 / mixed_ref=1 / me_range=24 / chroma_me=1 / trellis=1 / 8x8dct=1 / cqm=0 / deadzone=21,11 / fast_pskip=0 / chroma_qp_offset=-3 / threads=6 / sliced_threads=0 / nr=0 / decimate=1 / interlaced=0 / constrained_intra=0 / bframes=4 / b_pyramid=1 / b_adapt=1 / b_bias=0 / direct=1 / weightb=1 / weightp=2 / keyint=250 / keyint_min=25 / scenecut=40 / intra_refresh=0 / rc_lookahead=50 / rc=2pass / mbtree=1 / bitrate=7978 / ratetol=1.0 / qcomp=0.60 / qpmin=10 / qpmax=51 / qpstep=4 / cplxblur=20.0 / qblur=0.5 / ip_ratio=1.40 / aq=1:1.50 
Language : English 

Audio 
ID : 2 
Format : DTS 
Format/Info : Digital Theater Systems 
Codec ID : A_DTS 
Duration : 2h 30mn 
Bit rate mode : Constant 
Bit rate : 1 510 Kbps 
Channel(s) : 6 channels 
Channel positions : Front: L C R, Side: L R, LFE 
Sampling rate : 48.0 KHz 
Bit depth : 24 bits 
Video delay : 10ms 
Stream size : 1.59 GiB (16%) 
Title : 3/2+1 
Language : English 

Text #1 
Language : English 
Text #2  
Language : French 
Text #3 
Language : Spanish 
Text #4 
Language : French 
Text #5 
Language : Spanish 

Menu & 26 Chapters


 
See the full size 1920x800 PNG files at the link below
 
http://s1015.photobucket.com/albums/af279/tequila-bob/Armageddon%201998/


[img]http://torrent-stats.info/55c3/5bb1eba2.png[/img]

[url=http://www.torrent-stats.info][img]http://torrent-stats.info/55c3/5bb1eba2.png[/img][/url]